<svg width="784" height="245" viewBox="0 0 784 245" fill="none" xmlns="http://www.w3.org/2000/svg">
<g clip-path="url(#clip0_1_1159)" filter="url(#filter0_ddd_1_1159)">
<path d="M683.808 38L640.579 89.6526L607.781 128.85H645.267C647.547 129.003 649.348 130.905 649.348 133.231C649.348 134.212 649.262 135.121 649.242 135.346C649.138 136.535 649.023 137.675 648.897 138.777C648.097 145.804 646.865 151.235 644.81 157.116C644.767 157.246 644.724 157.37 644.677 157.497C643.877 159.76 642.956 162.092 641.891 164.611C641.871 164.654 641.854 164.7 641.834 164.749C650.641 161.581 658.645 157.333 665.785 151.925C672.926 146.52 679.203 139.952 684.559 132.149C685.583 130.657 686.734 128.85 689.955 128.85H727.997C719.029 110.416 685.186 40.6838 683.808 38ZM682.794 116.464C680.561 116.464 678.512 117.711 677.467 119.691C675.588 123.263 673.674 126.299 671.852 128.847C666.024 137 661.117 140.212 661.117 140.212C662.032 136.59 662.772 132.766 663.307 128.847C663.658 126.311 663.92 123.731 664.09 121.145C664.257 118.611 662.254 116.464 659.718 116.464H637.304C639.189 114.205 642.496 110.254 646.476 105.501C658.17 91.5226 675.689 70.5978 680.118 65.3024L705.001 116.464H682.792H682.794Z" fill="white"/>
<path d="M439.345 131.292C442.572 126.317 444.183 120.464 444.183 113.616C444.183 106.768 442.572 100.673 439.345 95.6926C436.119 90.5905 431.531 86.7293 425.45 84.1206C419.501 81.5032 412.43 80.1324 404.242 80.1324H363.065V171H386.378V145.028L399.119 145.037L417.461 171H445.953L426.083 142.748C431.546 140.139 436.367 136.27 439.342 131.54V131.289L439.345 131.292ZM414.666 104.214C417.268 106.581 418.629 109.816 418.629 114.046C418.629 118.277 417.268 121.004 414.666 123.37C412.056 125.731 408.087 126.85 402.757 126.85H386.381V100.878H402.633C407.969 100.878 411.932 101.724 414.542 104.09L414.666 104.214Z" fill="white"/>
<path d="M523.27 117.677C520.023 112.393 515.45 108.312 509.792 105.311C504.012 102.425 497.393 100.867 489.93 100.867C482.467 100.867 475.969 102.31 470.19 105.311C464.41 108.191 459.958 112.393 456.706 117.677C453.459 122.96 451.776 128.969 451.776 135.808C451.776 142.647 453.459 148.664 456.706 154.069C459.958 159.353 464.531 163.555 470.19 166.556C475.969 169.557 482.467 171 489.93 171C497.393 171 503.892 169.557 509.792 166.556C515.571 163.555 520.144 159.353 523.27 154.069C526.522 148.779 528.205 142.656 528.205 135.808C528.205 128.96 526.522 122.957 523.27 117.677ZM502.208 144.699C501.002 147.224 499.318 149.022 497.151 150.225C494.99 151.426 492.578 152.023 489.809 152.023C487.041 152.023 484.758 151.426 482.709 150.225C480.539 149.025 478.855 147.103 477.652 144.699C476.331 142.18 475.727 139.294 475.727 135.932C475.727 132.57 476.449 129.569 477.652 127.165C478.979 124.767 480.663 122.963 482.709 121.647C484.871 120.447 487.282 119.841 489.809 119.841C492.336 119.841 494.99 120.444 497.151 121.647C499.318 122.848 501.005 124.649 502.208 127.165C503.414 129.569 504.012 132.455 504.012 135.932C504.012 139.409 503.414 142.295 502.208 144.699Z" fill="white"/>
<path d="M584.581 100.875L569.376 119.142L556.597 100.945H529.121L554.456 137.029L526.251 171H552.554L566.518 154.211L578.307 171H605.783L581.409 136.287L610.834 100.875H584.578H584.581Z" fill="white"/>
<path d="M102.648 147.588L64.7464 80.3547H56V170.977H64.7464V100.469L102.648 165.139L140.575 100.189V170.98H149.295V80.3547H140.552L102.648 147.591V147.588Z" fill="white"/>
<path d="M192.621 163.286C180.266 163.286 169.836 155.013 166.537 143.695L219.551 132.397L227.19 130.772C226.821 128.29 226.197 125.889 225.336 123.604C220.366 110.335 207.593 100.896 192.621 100.896C173.318 100.896 157.673 116.583 157.673 135.938C157.673 136.636 157.696 137.329 157.739 138.013C158.807 156.395 174.018 170.974 192.621 170.974C206.301 170.974 218.144 163.09 223.88 151.61L217.171 147.726C212.811 156.926 203.457 163.283 192.621 163.283V163.286ZM165.447 136.042C165.447 120.995 177.612 108.797 192.618 108.797C203.803 108.797 213.407 115.576 217.58 125.257L165.452 136.368C165.447 136.258 165.447 136.151 165.447 136.042Z" fill="white"/>
<path d="M268.59 163.286C256.235 163.286 245.805 155.013 242.507 143.695L295.52 132.397L303.159 130.772C302.79 128.29 302.166 125.889 301.305 123.604C296.335 110.335 283.562 100.896 268.59 100.896C249.287 100.896 233.642 116.583 233.642 135.938C233.642 136.636 233.665 137.329 233.708 138.013C234.776 156.395 249.987 170.974 268.59 170.974C282.27 170.974 294.113 163.09 299.849 151.61L293.14 147.726C288.78 156.926 279.426 163.283 268.59 163.283V163.286ZM241.419 136.042C241.419 120.995 253.584 108.797 268.59 108.797C279.775 108.797 289.379 115.576 293.552 125.257L241.424 136.368C241.419 136.258 241.419 136.151 241.419 136.042Z" fill="white"/>
<path d="M352.316 162.709C348.595 167.739 342.631 171.003 335.905 171.003C331.073 171.003 326.635 169.32 323.138 166.504C322.476 165.909 321.785 165.278 321.08 164.605C321.077 164.602 321.072 164.596 321.066 164.588C317.612 160.923 315.494 155.98 315.494 150.54L315.488 109.668H303.826V100.899H315.488V80.1007H324.235V100.899H344.652L344.643 109.668H324.235V133.747L324.24 150.54C324.24 150.742 324.246 150.944 324.258 151.14C324.266 151.328 324.284 151.512 324.301 151.694C324.877 157.61 329.853 162.23 335.905 162.23C339.365 162.23 342.47 160.721 344.606 158.32C344.623 158.303 344.634 158.288 344.652 158.271L352.316 162.709Z" fill="white"/>
</g>
<defs>
<filter id="filter0_ddd_1_1159" x="0" y="0" width="784" height="245" filterUnits="userSpaceOnUse" color-interpolation-filters="sRGB">
<feFlood flood-opacity="0" result="BackgroundImageFix"/>
<feColorMatrix in="SourceAlpha" type="matrix" values="0 0 0 0 0 0 0 0 0 0 0 0 0 0 0 0 0 0 127 0" result="hardAlpha"/>
<feOffset dy="18"/>
<feGaussianBlur stdDeviation="28"/>
<feColorMatrix type="matrix" values="0 0 0 0 0 0 0 0 0 0 0 0 0 0 0 0 0 0 0.1 0"/>
<feBlend mode="normal" in2="BackgroundImageFix" result="effect1_dropShadow_1_1159"/>
<feColorMatrix in="SourceAlpha" type="matrix" values="0 0 0 0 0 0 0 0 0 0 0 0 0 0 0 0 0 0 127 0" result="hardAlpha"/>
<feOffset dy="10"/>
<feGaussianBlur stdDeviation="9"/>
<feColorMatrix type="matrix" values="0 0 0 0 0 0 0 0 0 0 0 0 0 0 0 0 0 0 0.05 0"/>
<feBlend mode="normal" in2="effect1_dropShadow_1_1159" result="effect2_dropShadow_1_1159"/>
<feColorMatrix in="SourceAlpha" type="matrix" values="0 0 0 0 0 0 0 0 0 0 0 0 0 0 0 0 0 0 127 0" result="hardAlpha"/>
<feOffset dy="4"/>
<feGaussianBlur stdDeviation="3"/>
<feColorMatrix type="matrix" values="0 0 0 0 0 0 0 0 0 0 0 0 0 0 0 0 0 0 0.04 0"/>
<feBlend mode="normal" in2="effect2_dropShadow_1_1159" result="effect3_dropShadow_1_1159"/>
<feBlend mode="normal" in="SourceGraphic" in2="effect3_dropShadow_1_1159" result="shape"/>
</filter>
<clipPath id="clip0_1_1159">
<rect width="672" height="133" fill="white" transform="translate(56 38)"/>
</clipPath>
</defs>
</svg>
